<?xml version="1.0" encoding="UTF-8" standalone="no"?>
<svg
   xmlns:dc="http://purl.org/dc/elements/1.1/"
   xmlns:cc="http://creativecommons.org/ns#"
   xmlns:rdf="http://www.w3.org/1999/02/22-rdf-syntax-ns#"
   xmlns:svg="http://www.w3.org/2000/svg"
   xmlns="http://www.w3.org/2000/svg"
   xmlns:sodipodi="http://sodipodi.sourceforge.net/DTD/sodipodi-0.dtd"
   xmlns:inkscape="http://www.inkscape.org/namespaces/inkscape"
   preserveAspectRatio="xMidYMid"
   width="1200"
   height="1200"
   viewBox="0 0 1200 1200"
   id="svg2"
   version="1.1"
   inkscape:version="0.91 r13725"
   sodipodi:docname="simpleiframe.svg">
  <title
     id="title4225">Simple iFrame TYPO3 icon</title>
  <metadata
     id="metadata14">
    <rdf:RDF>
      <cc:Work
         rdf:about="">
        <dc:format>image/svg+xml</dc:format>
        <dc:type
           rdf:resource="http://purl.org/dc/dcmitype/StillImage" />
        <dc:title>Simple iFrame TYPO3 icon</dc:title>
        <cc:license
           rdf:resource="http://creativecommons.org/licenses/by-nc/3.0/" />
        <dc:creator>
          <cc:Agent>
            <dc:title>Rania Marou</dc:title>
          </cc:Agent>
        </dc:creator>
      </cc:Work>
      <cc:License
         rdf:about="http://creativecommons.org/licenses/by-nc/3.0/">
        <cc:permits
           rdf:resource="http://creativecommons.org/ns#Reproduction" />
        <cc:permits
           rdf:resource="http://creativecommons.org/ns#Distribution" />
        <cc:requires
           rdf:resource="http://creativecommons.org/ns#Notice" />
        <cc:requires
           rdf:resource="http://creativecommons.org/ns#Attribution" />
        <cc:prohibits
           rdf:resource="http://creativecommons.org/ns#CommercialUse" />
        <cc:permits
           rdf:resource="http://creativecommons.org/ns#DerivativeWorks" />
      </cc:License>
    </rdf:RDF>
  </metadata>
  <sodipodi:namedview
     pagecolor="#ffffff"
     bordercolor="#666666"
     borderopacity="1"
     objecttolerance="10"
     gridtolerance="10"
     guidetolerance="10"
     inkscape:pageopacity="0"
     inkscape:pageshadow="2"
     inkscape:window-width="1920"
     inkscape:window-height="1027"
     id="namedview12"
     showgrid="false"
     showguides="true"
     inkscape:guide-bbox="true"
     inkscape:zoom="0.55625733"
     inkscape:cx="541.71805"
     inkscape:cy="540.48313"
     inkscape:window-x="0"
     inkscape:window-y="24"
     inkscape:window-maximized="1"
     inkscape:current-layer="svg2" />
  <defs
     id="defs4">
    <style
       id="style6">.cls-1 { fill: #919de1; } .cls-2 { fill: #fff; fill-rule: evenodd; }</style>
  </defs>
  <path
     style="fill:#aa0044"
     inkscape:connector-curvature="0"
     class="cls-1"
     d="m -1.5,-1.5 1203,0 0,1203 -1203,0 z"
     id="path4170" />
  <path
     id="path3345"
     style="font-style:normal;font-variant:normal;font-weight:bold;font-stretch:normal;font-size:medium;line-height:125%;font-family:'Arial Rounded MT Bold';-inkscape-font-specification:'Arial Rounded MT Bold, Bold';letter-spacing:0px;word-spacing:0px;fill:#ffffff;fill-opacity:1;stroke:#ffffff;stroke-width:11.36396503;stroke-linecap:butt;stroke-linejoin:round;stroke-miterlimit:4;stroke-dasharray:none;stroke-opacity:1"
     d="m 505.97225,718.66745 0,55.37279 -196.83758,-85.30933 0,-47.35058 196.83758,-85.30933 0,55.76412 -137.16018,52.82918 137.16018,54.00315 z m 141.1827,-163.77043 -54.78581,225.60012 q -2.73928,11.15283 -4.89158,17.60973 -1.95664,6.45689 -6.26124,9.97883 -4.10894,3.71761 -12.13115,3.71761 -19.95768,0 -19.95768,-17.21839 0,-4.50026 3.91328,-22.50131 L 607.6309,546.48349 q 4.3046,-18.00105 8.21787,-24.65362 3.91328,-6.65255 15.26176,-6.65255 9.78318,0 14.87044,4.69592 5.28292,4.69593 5.28292,12.91379 0,6.06558 -4.10894,22.10999 z m 243.71042,133.83389 -196.83756,85.70066 0,-55.37279 137.55149,-54.00315 -137.55149,-53.22051 0,-54.98146 196.83756,84.918 0,46.95925 z"
     inkscape:connector-curvature="0" />
  <path
     style="font-style:normal;font-variant:normal;font-weight:bold;font-stretch:normal;font-size:medium;line-height:125%;font-family:'Arial Rounded MT Bold';-inkscape-font-specification:'Arial Rounded MT Bold, Bold';letter-spacing:0px;word-spacing:0px;fill:#ffffff;fill-opacity:1;stroke:#ffffff;stroke-width:10;stroke-linecap:butt;stroke-linejoin:miter;stroke-miterlimit:4;stroke-dasharray:none;stroke-opacity:1"
     d="m 244.21288,245.9472 c -22.811,0 -42.1962,7.97727 -58.1582,23.94727 -15.97,15.963 -23.94727,35.3482 -23.94727,58.1582 l 0,625.97262 c 145.96253,0.031 291.92618,0.034 437.89063,0.031 145.96445,0 291.92979,-0.012 437.89456,-0.01 l 0,-625.99802 c 0,-22.812 -7.9861,-42.1952 -23.9492,-58.1582 -15.96908,-15.969 -35.3523,-23.94727 -58.1563,-23.94727 z m 711.57422,54.73633 c 7.41,0 13.82219,2.707 19.24219,8.125 5.41133,5.41279 8.125,11.82465 8.125,19.24219 l 0,47.36914 -766.30664,0 -0.004,-47.36914 c -6.3e-4,-7.417 2.705,-13.82919 8.125,-19.24219 5.3009,-5.3058 11.56051,-8.01326 18.7832,-8.12305 z m -738.92969,129.4707 766.29688,0 0,469.15625 c -255.41183,0 -510.82256,-0.0551 -766.23438,0.0488 z"
     id="path3343"
     inkscape:connector-curvature="0"
     sodipodi:nodetypes="scscscssssscsccsccsccccc" />
</svg>
